# 3ds Max Wavefront OBJ Exporter v0.99 - (c)2007 guruware
# File Created: 04.06.2024 16:21:52

#
# object airship_propeller_001
#

v  -0.0202 -2.5367 -0.1249
v  -0.0498 -2.5367 -0.1111
v  -0.1211 -2.3319 -0.2415
v  -0.0676 -2.3319 -0.2655
v  0.0499 -2.5164 0.0251
v  0.0202 -2.5164 0.0390
v  0.0530 -0.6402 -0.3262
v  0.0108 -1.3108 -0.4346
v  -0.1236 -1.3108 -0.4147
v  -0.0598 -0.6402 -0.3249
v  0.0164 0.0304 -0.1558
v  -0.0163 0.0304 -0.1558
v  0.1589 -1.6461 0.1493
v  0.1580 -1.9814 0.1181
v  -0.0241 -2.0104 -0.3828
v  0.0039 -1.6461 -0.4314
v  0.0292 -1.9814 0.2051
v  0.0436 -2.3001 0.1536
v  0.1179 -2.3001 0.1202
v  0.1354 -1.9814 0.1669
v  0.0972 -0.6402 0.1863
v  0.1418 -1.3108 0.1758
v  0.0536 -1.3108 -0.4015
v  0.0908 -0.6402 -0.2878
v  -0.2016 -2.0071 -0.3225
v  -0.1403 -2.3290 -0.1907
v  -0.0053 -2.3030 0.1331
v  -0.0185 -1.9814 0.1815
v  -0.0537 0.0304 -0.1169
v  -0.0967 -0.6402 -0.2855
v  -0.0903 -0.6402 0.1891
v  -0.0537 0.0304 0.1537
v  -0.1872 -1.6461 -0.3788
v  -0.0314 -1.6461 0.2046
v  -0.0722 -2.0118 -0.4078
v  -0.1792 -2.0098 -0.3715
v  -0.0164 0.0304 0.1917
v  -0.0525 -0.6402 0.2266
v  0.0604 -0.6402 0.2249
v  0.0164 0.0304 0.1917
v  -0.0235 -1.3108 0.2409
v  0.1107 -1.3108 0.2195
v  0.0147 -1.6461 0.2306
v  0.1338 -1.6461 0.1965
v  -0.0798 -2.4977 -0.0833
v  -0.0262 -2.4816 0.0396
v  0.1351 -2.3030 0.0698
v  0.0793 -2.4814 -0.0094
v  0.0216 -2.4977 -0.1303
v  -0.0168 -2.3290 -0.2461
v  -0.1547 -1.3108 -0.3706
v  -0.0661 -1.3108 0.2090
v  -0.0426 -1.6461 -0.4589
v  -0.1622 -1.6461 -0.4264
v  0.0537 0.0304 -0.1169
v  0.0538 0.0304 0.1537
v  0.0202 2.5367 -0.1249
v  0.0498 2.5367 -0.1111
v  0.1211 2.3319 -0.2415
v  0.0676 2.3319 -0.2655
v  -0.0499 2.5164 0.0251
v  -0.0202 2.5164 0.0390
v  -0.0530 0.6402 -0.3262
v  -0.0108 1.3108 -0.4346
v  0.1236 1.3108 -0.4147
v  0.0598 0.6402 -0.3249
v  -0.0164 -0.0304 -0.1558
v  0.0163 -0.0304 -0.1558
v  -0.1589 1.6461 0.1493
v  -0.1580 1.9814 0.1181
v  0.0241 2.0104 -0.3828
v  -0.0039 1.6461 -0.4314
v  -0.0292 1.9814 0.2051
v  -0.0436 2.3001 0.1536
v  -0.1179 2.3001 0.1202
v  -0.1354 1.9814 0.1669
v  -0.0972 0.6402 0.1863
v  -0.1418 1.3108 0.1758
v  -0.0536 1.3108 -0.4015
v  -0.0908 0.6402 -0.2878
v  0.2016 2.0071 -0.3225
v  0.1403 2.3290 -0.1907
v  0.0053 2.3030 0.1331
v  0.0185 1.9814 0.1815
v  0.0537 -0.0304 -0.1169
v  0.0967 0.6402 -0.2855
v  0.0903 0.6402 0.1891
v  0.0537 -0.0304 0.1537
v  0.1872 1.6461 -0.3788
v  0.0314 1.6461 0.2046
v  0.0722 2.0118 -0.4078
v  0.1792 2.0098 -0.3715
v  0.0164 -0.0304 0.1917
v  0.0525 0.6402 0.2266
v  -0.0604 0.6402 0.2249
v  -0.0164 -0.0304 0.1917
v  0.0235 1.3108 0.2409
v  -0.1107 1.3108 0.2195
v  -0.0147 1.6461 0.2306
v  -0.1338 1.6461 0.1965
v  0.0798 2.4977 -0.0833
v  0.0262 2.4816 0.0396
v  -0.1351 2.3030 0.0698
v  -0.0793 2.4814 -0.0094
v  -0.0216 2.4977 -0.1303
v  0.0168 2.3290 -0.2461
v  0.1547 1.3108 -0.3706
v  0.0661 1.3108 0.2090
v  0.0426 1.6461 -0.4589
v  0.1622 1.6461 -0.4264
v  -0.0537 -0.0304 -0.1169
v  -0.0538 -0.0304 0.1537
v  -0.1981 0.1981 -0.2449
v  -0.1981 0.1981 0.2449
v  0.0000 0.2801 0.2449
v  0.0000 0.2801 -0.2449
v  0.2801 0.0000 -0.2449
v  0.2801 0.0000 0.2449
v  0.1981 -0.1981 0.2449
v  0.1981 -0.1981 -0.2449
v  0.0000 -0.2801 0.2449
v  0.0000 -0.2801 -0.2449
v  -0.1981 -0.1981 0.2449
v  -0.1981 -0.1981 -0.2449
v  -0.2801 0.0000 0.2449
v  -0.2801 0.0000 -0.2449
v  0.1981 0.1981 -0.2449
v  0.1981 0.1981 0.2449
v  0.1711 0.1711 0.2801
v  0.0000 0.2420 0.2801
v  -0.1711 0.1711 0.2801
v  -0.2420 0.0000 0.2801
v  -0.1711 -0.1711 0.2801
v  0.0000 -0.2420 0.2801
v  0.1711 -0.1711 0.2801
v  0.2420 0.0000 0.2801
v  0.1711 0.1711 -0.2801
v  0.0000 0.2420 -0.2801
v  0.2420 0.0000 -0.2801
v  0.1711 -0.1711 -0.2801
v  0.0000 -0.2420 -0.2801
v  -0.1711 -0.1711 -0.2801
v  -0.2420 0.0000 -0.2801
v  -0.1711 0.1711 -0.2801
# 144 vertices

vn 0.1850 -0.7668 -0.6146
vn -0.5864 -0.7662 -0.2627
vn -0.6007 -0.4488 -0.6616
vn -0.0344 -0.4615 -0.8865
vn 0.6120 -0.6767 0.4094
vn -0.0899 -0.6768 0.7307
vn 0.2202 0.1877 -0.9572
vn 0.1075 0.1121 -0.9879
vn -0.3484 0.1394 -0.9269
vn -0.3193 0.1996 -0.9264
vn 0.3150 0.2498 -0.9156
vn -0.3298 0.2508 -0.9101
vn 0.9803 -0.0373 -0.1940
vn 0.9621 -0.0613 -0.2658
vn 0.9160 -0.0806 -0.3929
vn 0.9496 -0.0442 -0.3102
vn 0.0832 -0.1164 0.9897
vn 0.0864 -0.2714 0.9586
vn 0.6219 -0.2603 0.7386
vn 0.5623 -0.1009 0.8208
vn 0.9991 0.0376 0.0210
vn 0.9977 0.0013 -0.0681
vn 0.9811 0.0027 -0.1934
vn 0.9903 0.0470 -0.1307
vn -0.9654 -0.0319 0.2589
vn -0.9525 -0.1135 0.2825
vn -0.8858 -0.0964 0.4540
vn -0.9217 -0.0265 0.3870
vn -0.9933 0.0812 -0.0818
vn -0.9983 0.0538 -0.0208
vn -0.9907 0.0371 0.1309
vn -0.9932 0.0624 0.0986
vn -0.9813 0.0074 0.1926
vn -0.9512 -0.0024 0.3085
vn -0.0521 -0.2595 -0.9643
vn -0.5509 -0.2278 -0.8029
vn -0.3166 0.0661 0.9463
vn -0.2140 0.0316 0.9763
vn 0.3246 0.0425 0.9449
vn 0.3350 0.0685 0.9397
vn -0.0948 -0.0111 0.9954
vn 0.3552 0.0098 0.9347
vn 0.0306 -0.0624 0.9976
vn 0.4749 -0.0410 0.8791
vn -0.9214 -0.2645 0.2848
vn -0.8207 -0.2531 0.5122
vn 0.9495 -0.1018 -0.2969
vn 0.9264 -0.2527 -0.2791
vn 0.8210 -0.2679 -0.5041
vn 0.8755 -0.1291 -0.4657
vn -0.9974 0.0226 0.0685
vn -0.9811 0.0073 0.1934
vn -0.0138 -0.0445 -0.9989
vn -0.4701 -0.0032 -0.8826
vn 0.9917 0.0829 -0.0984
vn 0.9945 0.0654 0.0820
vn -0.1850 0.7668 -0.6146
vn 0.5864 0.7662 -0.2627
vn 0.6007 0.4488 -0.6616
vn 0.0344 0.4615 -0.8865
vn -0.6120 0.6767 0.4094
vn 0.0899 0.6768 0.7307
vn -0.2202 -0.1877 -0.9572
vn -0.1075 -0.1121 -0.9879
vn 0.3484 -0.1394 -0.9269
vn 0.3193 -0.1996 -0.9264
vn -0.3150 -0.2498 -0.9156
vn 0.3298 -0.2508 -0.9101
vn -0.9803 0.0373 -0.1940
vn -0.9621 0.0613 -0.2658
vn -0.9160 0.0806 -0.3929
vn -0.9496 0.0442 -0.3102
vn -0.0832 0.1164 0.9897
vn -0.0864 0.2714 0.9586
vn -0.6219 0.2603 0.7386
vn -0.5623 0.1009 0.8208
vn -0.9991 -0.0376 0.0210
vn -0.9977 -0.0013 -0.0681
vn -0.9811 -0.0027 -0.1934
vn -0.9903 -0.0470 -0.1307
vn 0.9654 0.0319 0.2589
vn 0.9525 0.1135 0.2825
vn 0.8858 0.0964 0.4540
vn 0.9217 0.0265 0.3870
vn 0.9933 -0.0812 -0.0818
vn 0.9983 -0.0538 -0.0208
vn 0.9907 -0.0371 0.1309
vn 0.9932 -0.0624 0.0986
vn 0.9813 -0.0074 0.1926
vn 0.9512 0.0024 0.3085
vn 0.0521 0.2595 -0.9643
vn 0.5509 0.2278 -0.8029
vn 0.3166 -0.0661 0.9463
vn 0.2140 -0.0316 0.9763
vn -0.3246 -0.0425 0.9449
vn -0.3350 -0.0685 0.9397
vn 0.0948 0.0111 0.9954
vn -0.3552 -0.0098 0.9347
vn -0.0306 0.0624 0.9976
vn -0.4749 0.0410 0.8791
vn 0.9214 0.2645 0.2848
vn 0.8207 0.2531 0.5122
vn -0.9495 0.1018 -0.2969
vn -0.9264 0.2527 -0.2791
vn -0.8210 0.2679 -0.5041
vn -0.8755 0.1291 -0.4657
vn 0.9974 -0.0226 0.0685
vn 0.9811 -0.0073 0.1934
vn 0.0138 0.0445 -0.9989
vn 0.4701 0.0032 -0.8826
vn -0.9917 -0.0829 -0.0984
vn -0.9945 -0.0654 0.0820
vn -0.7055 0.7055 -0.0678
vn -0.7055 0.7055 0.0678
vn -0.0000 0.9977 0.0678
vn -0.0000 0.9977 -0.0678
vn 0.9977 0.0000 -0.0678
vn 0.9977 -0.0000 0.0678
vn 0.7055 -0.7055 0.0678
vn 0.7055 -0.7055 -0.0678
vn 0.0000 -0.9977 0.0678
vn 0.0000 -0.9977 -0.0678
vn -0.7055 -0.7055 0.0678
vn -0.7055 -0.7055 -0.0678
vn -0.9977 -0.0000 0.0678
vn -0.9977 -0.0000 -0.0678
vn 0.7055 0.7055 -0.0678
vn 0.7055 0.7055 0.0678
vn 0.0510 0.0510 0.9974
vn 0.0000 0.0721 0.9974
vn -0.0510 0.0510 0.9974
vn -0.0721 0.0000 0.9974
vn -0.0510 -0.0510 0.9974
vn -0.0000 -0.0721 0.9974
vn 0.0510 -0.0510 0.9974
vn 0.0721 -0.0000 0.9974
vn 0.0510 0.0510 -0.9974
vn 0.0001 0.0721 -0.9974
vn 0.0721 -0.0000 -0.9974
vn 0.0510 -0.0510 -0.9974
vn -0.0000 -0.0721 -0.9974
vn -0.0510 -0.0510 -0.9974
vn -0.0721 0.0000 -0.9974
vn -0.0510 0.0510 -0.9974
# 144 vertex normals

vt 0.6900 0.4823 0.0000
vt 0.6899 0.4823 0.0000
vt 0.6899 0.4822 0.0000
vt 0.6902 0.4817 0.0000
vt 0.6902 0.4819 0.0000
vt 0.6900 0.4829 0.0000
vt 0.6899 0.4829 0.0000
vt 0.6900 0.4817 0.0000
vt 0.6903 0.4824 0.0000
vt 0.6903 0.4822 0.0000
vt 0.6907 0.4821 0.0000
vt 0.6908 0.4824 0.0000
vt 0.6901 0.4822 0.0000
vt 0.6901 0.4820 0.0000
vt 0.6902 0.4820 0.0000
vt 0.6902 0.4822 0.0000
vt 0.6903 0.4811 0.0000
vt 0.6908 0.4811 0.0000
vt 0.6907 0.4817 0.0000
vt 0.6901 0.4818 0.0000
vt 0.6896 0.4816 0.0000
vt 0.6893 0.4815 0.0000
vt 0.6893 0.4812 0.0000
vt 0.6896 0.4812 0.0000
vt 0.6914 0.4815 0.0000
vt 0.6908 0.4816 0.0000
vt 0.6908 0.4812 0.0000
vt 0.6914 0.4812 0.0000
vt 0.6899 0.4817 0.0000
vt 0.6899 0.4811 0.0000
vt 0.6899 0.4819 0.0000
vt 0.6898 0.4819 0.0000
vt 0.6901 0.4824 0.0000
vt 0.6902 0.4818 0.0000
vt 0.6901 0.4812 0.0000
vt 0.6902 0.4812 0.0000
vt 0.6901 0.4825 0.0000
vt 0.6902 0.4825 0.0000
vt 0.6892 0.4814 0.0000
vt 0.6892 0.4813 0.0000
vt 0.6903 0.4819 0.0000
vt 0.6904 0.4817 0.0000
vt 0.6905 0.4817 0.0000
vt 0.6906 0.4818 0.0000
vt 0.6899 0.4816 0.0000
vt 0.6898 0.4816 0.0000
vt 0.6912 0.4826 0.0000
vt 0.6906 0.4824 0.0000
vt 0.6907 0.4823 0.0000
vt 0.6912 0.4825 0.0000
vt 0.6907 0.4820 0.0000
vt 0.6907 0.4814 0.0000
vt 0.6908 0.4814 0.0000
vt 0.6902 0.4823 0.0000
vt 0.6903 0.4823 0.0000
vt 0.6902 0.4811 0.0000
vt 0.6902 0.4824 0.0000
vt 0.6900 0.4816 0.0000
vt 0.6900 0.4812 0.0000
vt 0.6900 0.4818 0.0000
vt 0.6900 0.4822 0.0000
vt 0.6891 0.4814 0.0000
vt 0.6903 0.4818 0.0000
vt 0.6900 0.4819 0.0000
vt 0.6905 0.4823 0.0000
vt 0.6898 0.4818 0.0000
vt 0.6906 0.4817 0.0000
vt 0.6897 0.4818 0.0000
vt 0.6897 0.4812 0.0000
vt 0.6899 0.4812 0.0000
vt 0.6897 0.4824 0.0000
vt 0.6898 0.4824 0.0000
vt 0.6909 0.4821 0.0000
vt 0.6913 0.4820 0.0000
vt 0.6913 0.4824 0.0000
vt 0.6914 0.4817 0.0000
vt 0.6914 0.4814 0.0000
vt 0.6915 0.4814 0.0000
vt 0.6915 0.4817 0.0000
vt 0.6908 0.4827 0.0000
vt 0.6913 0.4827 0.0000
vt 0.6912 0.4816 0.0000
vt 0.6896 0.4818 0.0000
vt 0.6895 0.4821 0.0000
vt 0.6892 0.4821 0.0000
vt 0.6891 0.4818 0.0000
vt 0.6894 0.4817 0.0000
vt 0.6896 0.4823 0.0000
vt 0.6892 0.4823 0.0000
vt 0.6892 0.4817 0.0000
vt 0.6896 0.4815 0.0000
vt 0.6891 0.4815 0.0000
vt 0.6898 0.4822 0.0000
vt 0.6914 0.4818 0.0000
vt 0.6915 0.4812 0.0000
vt 0.6914 0.4822 0.0000
vt 0.6915 0.4822 0.0000
vt 0.6914 0.4820 0.0000
vt 0.6915 0.4820 0.0000
vt 0.6894 0.4823 0.0000
vt 0.6892 0.4822 0.0000
vt 0.6909 0.4818 0.0000
vt 0.6910 0.4816 0.0000
vt 0.6911 0.4816 0.0000
vt 0.6912 0.4818 0.0000
vt 0.6896 0.4829 0.0000
vt 0.6891 0.4828 0.0000
vt 0.6898 0.4825 0.0000
vt 0.6899 0.4825 0.0000
vt 0.6911 0.4826 0.0000
vt 0.6895 0.4817 0.0000
vt 0.6914 0.4816 0.0000
vt 0.6915 0.4816 0.0000
vt 0.6908 0.4822 0.0000
vt 0.6908 0.4821 0.0000
vt 0.6897 0.4825 0.0000
vt 0.6897 0.4829 0.0000
vt 0.6897 0.4815 0.0000
vt 0.6913 0.4822 0.0000
vt 0.6913 0.4828 0.0000
vt 0.6909 0.4816 0.0000
vt 0.6907 0.4818 0.0000
vt 0.6911 0.4822 0.0000
vt 0.3168 0.1463 0.0000
vt 0.3168 0.1470 0.0000
vt 0.3165 0.1470 0.0000
vt 0.3165 0.1463 0.0000
vt 0.3167 0.1454 0.0000
vt 0.3167 0.1462 0.0000
vt 0.3165 0.1462 0.0000
vt 0.3165 0.1454 0.0000
vt 0.3172 0.1468 0.0000
vt 0.3165 0.1468 0.0000
vt 0.3165 0.1465 0.0000
vt 0.3172 0.1465 0.0000
vt 0.3172 0.1462 0.0000
vt 0.3173 0.1470 0.0000
vt 0.3173 0.1462 0.0000
vt 0.3175 0.1462 0.0000
vt 0.3175 0.1470 0.0000
vt 0.3178 0.1462 0.0000
vt 0.3178 0.1470 0.0000
vt 0.3170 0.1454 0.0000
vt 0.3170 0.1462 0.0000
vt 0.3176 0.1462 0.0000
vt 0.3171 0.1460 0.0000
vt 0.3171 0.1457 0.0000
vt 0.3173 0.1455 0.0000
vt 0.3176 0.1455 0.0000
vt 0.3178 0.1457 0.0000
vt 0.3178 0.1460 0.0000
vt 0.3162 0.1470 0.0000
vt 0.3162 0.1463 0.0000
vt 0.3176 0.1454 0.0000
vt 0.3178 0.1456 0.0000
vt 0.3164 0.1460 0.0000
vt 0.3178 0.1459 0.0000
vt 0.3179 0.1460 0.0000
vt 0.3168 0.1466 0.0000
vt 0.3169 0.1463 0.0000
vt 0.3169 0.1466 0.0000
vt 0.3170 0.1461 0.0000
vt 0.3171 0.1461 0.0000
vt 0.3171 0.1459 0.0000
vt 0.3173 0.1461 0.0000
vt 0.3171 0.1456 0.0000
vt 0.3173 0.1454 0.0000
vt 0.3171 0.1464 0.0000
vt 0.3172 0.1461 0.0000
vt 0.3172 0.1464 0.0000
vt 0.3176 0.1461 0.0000
# 171 texture coords

o airship_propeller_001
g airship_propeller_001
f 1/1/1 2/2/2 3/3/3 
f 3/3/3 4/3/4 1/1/1 
f 2/4/2 1/4/1 5/5/5 
f 5/5/5 6/5/6 2/4/2 
f 7/1/7 8/6/8 9/7/9 
f 9/7/9 10/2/10 7/1/7 
f 11/8/11 7/1/7 10/2/10 
f 10/2/10 12/8/12 11/8/11 
f 13/9/13 14/10/14 15/11/15 
f 15/11/15 16/12/16 13/9/13 
f 17/13/17 18/14/18 19/15/19 
f 19/15/19 20/16/20 17/13/17 
f 21/4/21 22/17/22 23/18/23 
f 23/18/23 24/19/24 21/4/21 
f 6/20/6 5/20/5 19/15/19 
f 19/15/19 18/14/18 6/20/6 
f 25/21/25 26/22/26 27/23/27 
f 27/23/27 28/24/28 25/21/25 
f 29/25/29 30/26/30 31/27/31 
f 31/27/31 32/28/32 29/25/29 
f 33/29/33 25/21/25 28/24/28 
f 28/24/28 34/30/34 33/29/33 
f 35/31/35 4/3/4 3/3/3 
f 3/3/3 36/32/36 35/31/35 
f 37/33/37 38/20/38 39/34/39 
f 39/34/39 40/33/40 37/33/37 
f 38/20/38 41/35/41 42/36/42 
f 42/36/42 39/34/39 38/20/38 
f 43/37/43 17/13/17 20/16/20 
f 20/16/20 44/38/44 43/37/43 
f 26/22/26 45/39/45 46/40/46 
f 46/40/46 27/23/27 26/22/26 
f 47/41/47 48/42/48 49/43/49 
f 49/43/49 50/44/50 47/41/47 
f 14/10/14 47/41/47 50/44/50 
f 50/44/50 15/11/15 14/10/14 
f 30/26/30 51/4/51 52/36/52 
f 52/36/52 31/27/31 30/26/30 
f 53/45/53 35/31/35 36/32/36 
f 36/32/36 54/46/54 53/45/53 
f 7/47/7 11/48/11 55/49/55 
f 55/49/55 24/50/24 7/47/7 
f 30/26/30 29/25/29 12/25/12 
f 12/25/12 10/26/10 30/26/30 
f 38/51/38 37/52/37 32/53/32 
f 32/53/32 31/51/31 38/51/38 
f 40/54/40 39/4/39 21/4/21 
f 21/4/21 56/55/56 40/54/40 
f 39/4/39 42/56/42 22/17/22 
f 22/17/22 21/4/21 39/4/39 
f 44/57/44 20/16/20 14/10/14 
f 14/10/14 13/9/13 44/57/44 
f 53/45/53 8/6/8 23/6/23 
f 23/6/23 16/58/16 53/45/53 
f 8/6/8 7/1/7 24/1/24 
f 24/1/24 23/6/23 8/6/8 
f 33/29/33 51/4/51 9/4/9 
f 9/4/9 54/29/54 33/29/33 
f 51/4/51 30/26/30 10/26/10 
f 10/26/10 9/4/9 51/4/51 
f 43/37/43 41/35/41 52/59/52 
f 52/59/52 34/37/34 43/37/43 
f 41/35/41 38/20/38 31/60/31 
f 31/60/31 52/59/52 41/35/41 
f 50/61/50 49/1/49 1/1/1 
f 1/1/1 4/3/4 50/61/50 
f 45/39/45 26/22/26 3/22/3 
f 3/22/3 2/62/2 45/39/45 
f 27/14/27 46/20/46 6/20/6 
f 6/20/6 18/14/18 27/14/27 
f 48/42/48 47/41/47 19/41/19 
f 19/41/19 5/42/5 48/42/48 
f 28/13/28 27/14/27 18/14/18 
f 18/14/18 17/13/17 28/13/28 
f 47/41/47 14/10/14 20/16/20 
f 20/16/20 19/41/19 47/41/47 
f 5/5/5 1/4/1 49/63/49 
f 49/63/49 48/41/48 5/5/5 
f 4/3/4 35/31/35 15/64/15 
f 15/64/15 50/61/50 4/3/4 
f 46/5/46 45/34/45 2/4/2 
f 2/4/2 6/5/6 46/5/46 
f 26/22/26 25/21/25 36/21/36 
f 36/21/36 3/22/3 26/22/26 
f 56/55/56 21/4/21 24/19/24 
f 24/19/24 55/65/55 56/55/56 
f 17/13/17 43/37/43 34/37/34 
f 34/37/34 28/13/28 17/13/17 
f 25/21/25 33/29/33 54/29/54 
f 54/29/54 36/21/36 25/21/25 
f 35/31/35 53/45/53 16/58/16 
f 16/58/16 15/64/15 35/31/35 
f 42/56/42 44/57/44 13/9/13 
f 13/9/13 22/17/22 42/56/42 
f 8/6/8 53/45/53 54/46/54 
f 54/46/54 9/7/9 8/6/8 
f 41/35/41 43/37/43 44/38/44 
f 44/38/44 42/36/42 41/35/41 
f 51/4/51 33/29/33 34/30/34 
f 34/30/34 52/36/52 51/4/51 
f 22/17/22 13/9/13 16/12/16 
f 16/12/16 23/18/23 22/17/22 
f 57/66/57 58/66/58 59/32/59 
f 59/32/59 60/32/60 57/66/57 
f 58/19/58 57/19/57 61/67/61 
f 61/67/61 62/67/62 58/19/58 
f 63/68/63 64/69/64 65/70/65 
f 65/70/65 66/66/66 63/68/63 
f 67/71/67 63/68/63 66/66/66 
f 66/66/66 68/72/68 67/71/67 
f 69/12/69 70/73/70 71/74/71 
f 71/74/71 72/75/72 69/12/69 
f 73/76/73 74/77/74 75/78/75 
f 75/78/75 76/79/76 73/76/73 
f 77/26/77 78/80/78 79/81/79 
f 79/81/79 80/82/80 77/26/77 
f 62/28/62 61/28/61 75/78/75 
f 75/78/75 74/77/74 62/28/62 
f 81/83/81 82/84/82 83/85/83 
f 83/85/83 84/86/84 81/83/81 
f 85/87/85 86/88/86 87/89/87 
f 87/89/87 88/90/88 85/87/85 
f 89/91/89 81/83/81 84/86/84 
f 84/86/84 90/92/90 89/91/89 
f 91/93/91 60/32/60 59/32/59 
f 59/32/59 92/3/92 91/93/91 
f 93/94/93 94/28/94 95/95/95 
f 95/95/95 96/94/96 93/94/93 
f 94/28/94 97/96/97 98/97/98 
f 98/97/98 95/95/95 94/28/94 
f 99/98/99 73/76/73 76/79/76 
f 76/79/76 100/99/100 99/98/99 
f 82/84/82 101/100/101 102/101/102 
f 102/101/102 83/85/83 82/84/82 
f 103/102/103 104/103/104 105/104/105 
f 105/104/105 106/105/106 103/102/103 
f 70/73/70 103/102/103 106/105/106 
f 106/105/106 71/74/71 70/73/70 
f 86/88/86 107/106/107 108/107/108 
f 108/107/108 87/89/87 86/88/86 
f 109/108/109 91/93/91 92/3/92 
f 92/3/92 110/109/110 109/108/109 
f 63/110/63 67/48/67 111/48/111 
f 111/48/111 80/110/80 63/110/63 
f 86/88/86 85/87/85 68/111/68 
f 68/111/68 66/88/66 86/88/86 
f 94/96/94 93/112/93 88/113/88 
f 88/113/88 87/96/87 94/96/94 
f 96/114/96 95/26/95 77/26/77 
f 77/26/77 112/114/112 96/114/96 
f 95/26/95 98/80/98 78/80/78 
f 78/80/78 77/26/77 95/26/95 
f 100/12/100 76/115/76 70/73/70 
f 70/73/70 69/12/69 100/12/100 
f 109/108/109 64/69/64 79/69/79 
f 79/69/79 72/116/72 109/108/109 
f 64/69/64 63/68/63 80/68/80 
f 80/68/80 79/69/79 64/69/64 
f 89/91/89 107/106/107 65/117/65 
f 65/117/65 110/118/110 89/91/89 
f 107/106/107 86/88/86 66/88/66 
f 66/88/66 65/117/65 107/106/107 
f 99/98/99 97/96/97 108/119/108 
f 108/119/108 90/98/90 99/98/99 
f 97/96/97 94/28/94 87/120/87 
f 87/120/87 108/119/108 97/96/97 
f 106/32/106 105/68/105 57/66/57 
f 57/66/57 60/32/60 106/32/106 
f 101/100/101 82/84/82 59/84/59 
f 59/84/59 58/100/58 101/100/101 
f 83/77/83 102/28/102 62/28/62 
f 62/28/62 74/77/74 83/77/83 
f 104/103/104 103/102/103 75/102/75 
f 75/102/75 61/121/61 104/103/104 
f 84/76/84 83/77/83 74/77/74 
f 74/77/74 73/76/73 84/76/84 
f 103/102/103 70/73/70 76/115/76 
f 76/115/76 75/102/75 103/102/103 
f 61/67/61 57/19/57 105/122/105 
f 105/122/105 104/44/104 61/67/61 
f 60/32/60 91/93/91 71/93/71 
f 71/93/71 106/32/106 60/32/60 
f 102/67/102 101/19/101 58/19/58 
f 58/19/58 62/67/62 102/67/102 
f 82/84/82 81/83/81 92/83/92 
f 92/83/92 59/84/59 82/84/82 
f 112/114/112 77/26/77 80/82/80 
f 80/82/80 111/123/111 112/114/112 
f 73/76/73 99/98/99 90/98/90 
f 90/98/90 84/76/84 73/76/73 
f 81/83/81 89/91/89 110/118/110 
f 110/118/110 92/83/92 81/83/81 
f 91/93/91 109/108/109 72/116/72 
f 72/116/72 71/93/71 91/93/91 
f 98/80/98 100/12/100 69/12/69 
f 69/12/69 78/80/78 98/80/98 
f 64/69/64 109/108/109 110/109/110 
f 110/109/110 65/70/65 64/69/64 
f 97/96/97 99/98/99 100/99/100 
f 100/99/100 98/97/98 97/96/97 
f 107/106/107 89/91/89 90/92/90 
f 90/92/90 108/107/108 107/106/107 
f 78/80/78 69/12/69 72/75/72 
f 72/75/72 79/81/79 78/80/78 
f 113/124/113 114/125/114 115/126/115 
f 115/126/115 116/127/116 113/124/113 
f 117/128/117 118/129/118 119/130/119 
f 119/130/119 120/131/120 117/128/117 
f 120/132/120 119/133/119 121/134/121 
f 121/134/121 122/135/122 120/132/120 
f 122/135/122 121/134/121 123/130/123 
f 123/130/123 124/136/124 122/135/122 
f 124/137/124 123/138/123 125/139/125 
f 125/139/125 126/140/126 124/137/124 
f 126/140/126 125/139/125 114/141/114 
f 114/141/114 113/142/113 126/140/126 
f 127/143/127 128/144/128 118/129/118 
f 118/129/118 117/128/117 127/143/127 
f 129/145/129 130/138/130 131/146/131 
f 129/145/129 131/146/131 132/147/132 
f 129/145/129 132/147/132 133/148/133 
f 129/145/129 133/148/133 134/149/134 
f 129/145/129 134/149/134 135/150/135 
f 129/145/129 135/150/135 136/151/136 
f 116/127/116 115/126/115 128/152/128 
f 128/152/128 127/153/127 116/127/116 
f 116/154/116 127/155/127 137/150/137 
f 137/150/137 138/149/138 116/154/116 
f 128/145/128 115/138/115 130/138/130 
f 130/138/130 129/145/129 128/145/128 
f 127/155/127 117/156/117 139/157/139 
f 139/157/139 137/150/137 127/155/127 
f 118/158/118 128/145/128 129/145/129 
f 129/145/129 136/151/136 118/158/118 
f 117/159/117 120/124/120 140/160/140 
f 140/160/140 139/161/139 117/159/117 
f 119/150/119 118/158/118 136/151/136 
f 136/151/136 135/150/135 119/150/119 
f 120/124/120 122/162/122 141/163/141 
f 141/163/141 140/160/140 120/124/120 
f 121/149/121 119/150/119 135/150/135 
f 135/150/135 134/149/134 121/149/121 
f 122/138/122 124/146/124 142/164/142 
f 142/164/142 141/165/141 122/138/122 
f 123/148/123 121/149/121 134/149/134 
f 134/149/134 133/148/133 123/148/123 
f 124/146/124 126/166/126 143/147/143 
f 143/147/143 142/164/142 124/146/124 
f 125/147/125 123/148/123 133/148/133 
f 133/148/133 132/147/132 125/147/125 
f 126/166/126 113/167/113 144/148/144 
f 144/148/144 143/147/143 126/166/126 
f 114/168/114 125/163/125 132/169/132 
f 132/169/132 131/170/131 114/168/114 
f 113/167/113 116/154/116 138/149/138 
f 138/149/138 144/148/144 113/167/113 
f 115/138/115 114/146/114 131/146/131 
f 131/146/131 130/138/130 115/138/115 
f 138/149/138 137/150/137 139/157/139 
f 138/149/138 139/157/139 140/171/140 
f 138/149/138 140/171/140 141/165/141 
f 138/149/138 141/165/141 142/164/142 
f 138/149/138 142/164/142 143/147/143 
f 138/149/138 143/147/143 144/148/144 
# 264 faces

